<svg height="512pt" viewBox="-61 0 512 512" width="512pt" xmlns="http://www.w3.org/2000/svg"><path d="m385.628906 124.914062-120-120.5c-2.816406-2.824218-6.640625-4.414062-10.628906-4.414062h-200c-30.328125 0-55 24.746094-55 55.167969v401.667969c0 30.417968 24.671875 55.164062 55 55.164062h280c30.328125 0 55-24.746094 55-55.167969v-321.332031c0-3.96875-1.570312-7.773438-4.371094-10.585938zm-115.628906-73.59375 68.894531 69.179688h-43.894531c-13.785156 0-25-11.289062-25-25.167969zm65 430.679688h-280c-13.785156 0-25-11.289062-25-25.167969v-401.664062c0-13.878907 11.214844-25.167969 25-25.167969h185v65.332031c0 30.421875 24.671875 55.167969 55 55.167969h65v306.332031c0 13.878907-11.214844 25.167969-25 25.167969zm0 0"/><path d="m281.347656 211.328125-120 30.125c-6.671875 1.671875-11.347656 7.667969-11.347656 14.546875v75.375h-15c-24.4375 0-45 19.714844-45 45.25 0 24.8125 20.1875 45 45 45s45-20.1875 45-45c0-10.773438 0-98.035156 0-108.925781l90-22.59375v56.144531h-15c-24.4375 0-45 19.714844-45 45.25 0 24.8125 20.1875 45 45 45s45-20.1875 45-45c0-1.90625 0-116.898438 0-120.625 0-9.761719-9.195312-16.925781-18.652344-14.546875zm-131.347656 165.296875c0 8.269531-6.730469 15-15 15-7.960938 0-15-6.324219-15-15.25 0-8.269531 6.730469-15 15-15h15zm120-30.125c0 8.269531-6.730469 15-15 15-7.960938 0-15-6.324219-15-15.25 0-8.269531 6.730469-15 15-15h15zm0 0"/></svg>